# xmcd
#
# Track frame offsets: 
#        150
#        14820
#        15652
#        36241
#        55732
#        74881
#        96906
#        97677
#        113668
#        134913
#        154195
#        155497
#        171572
#        191376
#        210821
#        226852
#        245144
#        248296
#        265232
#        281491
#        300486
#        303379
#
# Disc length: 4310 seconds
#
# Revision: 0
# Processed by: cddbd v1.5.2PL0 Copyright (c) Steve Scherf et al.
# Submitted via: ExactAudioCopy v0.99pb4
#
DISCID=2e10d416
DTITLE=S.A.S - Streets All Salute
DYEAR=2005
DGENRE=Rap
TTITLE0=I've Been Waiting
TTITLE1=Phone Skit #1
TTITLE2=Don't Even Think About It
TTITLE3=On Dem Roads
TTITLE4=Story of Us f/ Sewuese
TTITLE5=Hold Me f/ Baby Blue
TTITLE6=Killa Skit
TTITLE7=Dip Set Allday
TTITLE8=Ur In Da Army f/ Juelz Santana
TTITLE9=Rocks and Roll
TTITLE10=Phone Skit #2
TTITLE11=Top of the Globe
TTITLE12=So Free f/ Cam'ron
TTITLE13=Cheerio
TTITLE14=A.T.M [About That Money]
TTITLE15=Tarrantula
TTITLE16=Phone Skit #3
TTITLE17=Streets All Salute
TTITLE18=Can You Feel Me?
TTITLE19=Love Don't Live Here f/ Nicole Wray
TTITLE20=Phone Skit #4
TTITLE21=Beyond Deep
EXTD=
EXTT0=
EXTT1=
EXTT2=
EXTT3=
EXTT4=
EXTT5=
EXTT6=
EXTT7=
EXTT8=
EXTT9=
EXTT10=
EXTT11=
EXTT12=
EXTT13=
EXTT14=
EXTT15=
EXTT16=
EXTT17=
EXTT18=
EXTT19=
EXTT20=
EXTT21=
PLAYORDER=
